<svg enable-background="new 0 0 451.479 451.479" height="512" viewBox="0 0 451.479 451.479" width="512" xmlns="http://www.w3.org/2000/svg"><path d="m154.994 66.349h141.492c4.418 0 8 3.582 8 8v287.782c0 4.418-3.582 8-8 8h-141.492c-4.418 0-8-3.582-8-8v-287.782c0-4.419 3.581-8 8-8z" fill="#5cbbcf"/><path d="m154.994 66.349h70.746v303.782h-70.746c-4.418 0-8-3.582-8-8v-287.782c0-4.419 3.581-8 8-8z" fill="#4f9eae"/><path d="m65.998 381.131c-8.284 0-15-6.716-15-15v-84.314c0-8.284 6.716-15 15-15s15 6.716 15 15v84.314c0 8.284-6.716 15-15 15z" fill="#858ea4"/><path d="m65.998 381.131c-8.284 0-15-6.716-15-15v-84.314c0-8.284 6.716-15 15-15z" fill="#707789"/><path d="m386.981 381.131c-8.284 0-15-6.716-15-15v-84.314c0-8.284 6.716-15 15-15s15 6.716 15 15v84.314c0 8.284-6.715 15-15 15z" fill="#858ea4"/><path d="m197.739 172.473c-8.284 0-15-6.716-15-15v-19c0-8.284 6.716-15 15-15s15 6.716 15 15v19c0 8.284-6.716 15-15 15z" fill="#83cfe0"/><path d="m253.739 172.473c-8.284 0-15-6.716-15-15v-19c0-8.284 6.716-15 15-15s15 6.716 15 15v19c0 8.284-6.716 15-15 15z" fill="#c6e5e4"/><path d="m197.739 258.473c-8.284 0-15-6.716-15-15v-19c0-8.284 6.716-15 15-15s15 6.716 15 15v19c0 8.284-6.716 15-15 15z" fill="#83cfe0"/><path d="m253.739 258.473c-8.284 0-15-6.716-15-15v-19c0-8.284 6.716-15 15-15s15 6.716 15 15v19c0 8.284-6.716 15-15 15z" fill="#c6e5e4"/><circle cx="65.998" cy="284.871" fill="#8db44e" r="41.442"/><path d="m65.998 326.313c-22.888 0-41.442-18.554-41.442-41.442s18.554-41.442 41.442-41.442z" fill="#7da045"/><circle cx="386.981" cy="284.871" fill="#8db44e" r="41.442"/><path d="m386.981 326.313c-22.888 0-41.442-18.554-41.442-41.442s18.554-41.442 41.442-41.442z" fill="#7da045"/><path d="m196.893 312.438h57.693v57.693h-57.693z" fill="#387f9e"/><path d="m196.893 312.438h28.846v57.693h-28.846z" fill="#29556e"/><path d="m436.479 385.131h-421.479c-8.284 0-15-6.716-15-15s6.716-15 15-15h421.479c8.284 0 15 6.716 15 15s-6.715 15-15 15z" fill="#f79f4b"/><path d="m225.74 385.131h-210.74c-8.284 0-15-6.716-15-15s6.716-15 15-15h210.74z" fill="#ca8540"/></svg>