<svg enable-background="new 0 0 283.994 283.994" viewBox="0 0 283.994 283.994" xmlns="http://www.w3.org/2000/svg"><path d="m122.086 132.667c3.136 3.199 8.236 3.199 11.372 0 3.168-3.168 3.168-8.331 0-11.499l-2.217-2.281h24.772l-18.215 18.437c-1.489 1.521-2.344 3.611-2.344 5.765v54.74h-27.813v-28.479c0-2.914-1.552-5.607-4.055-7.064-23.949-13.938-38.806-39.914-38.806-67.823 0-43.114 34.624-78.181 77.199-78.181s77.231 35.068 77.231 78.181c0 28.732-15.522 55.088-40.484 68.805-2.598 1.394-4.213 4.15-4.213 7.159v27.401h-22.967v-51.382l29.587-29.936c2.281-2.344 2.978-5.829 1.742-8.87s-4.181-5.037-7.444-5.037h-63.609c-3.263 0-6.209 1.996-7.444 5.037s-.57 6.526 1.742 8.87z" fill="#fede94"/><path d="m64.78 94.464c0 27.908 14.857 53.884 38.806 67.823 2.503 1.457 4.055 4.15 4.055 7.064v28.478h27.813v-54.74c0-2.154.855-4.245 2.344-5.765l18.215-18.437h-24.772l2.217 2.281c3.168 3.168 3.168 8.331 0 11.499-3.136 3.199-8.236 3.199-11.372 0l-15.966-16.156c-2.312-2.344-2.978-5.829-1.742-8.87 1.235-3.041 4.181-5.037 7.444-5.037h63.609c3.263 0 6.209 1.996 7.444 5.037s.539 6.526-1.742 8.87l-29.587 29.936v51.382h22.967v-27.401c0-3.009 1.616-5.765 4.213-7.159 24.962-13.717 40.484-40.073 40.484-68.805 0-43.114-34.656-78.181-77.231-78.181s-77.199 35.067-77.199 78.181zm170.523 0c0 33.072-17.011 63.546-44.698 80.652v30.886c0 .539-.063 1.077-.158 1.584 2.914 3.358 4.752 7.729 4.752 12.544v.634c0 4.055-1.267 7.793-3.421 10.897 2.154 3.073 3.421 6.811 3.421 10.866v.634c0 10.517-8.426 19.038-18.785 19.038h-8.553v.697c0 11.626-9.345 21.098-20.844 21.098h-10.675c-11.499 0-20.844-9.472-20.844-21.098v-.697h-10.707c-10.359 0-18.785-8.521-18.785-19.038v-.634c0-4.055 1.299-7.793 3.421-10.866-2.122-3.104-3.421-6.842-3.421-10.897v-.634c0-5.29 2.154-10.074 5.607-13.526-.032-.19-.063-.412-.063-.602v-32.09c-26.546-17.296-42.86-47.327-42.86-79.448-.002-52.079 41.845-94.464 93.29-94.464 51.476 0 93.323 42.385 93.323 94.464zm-56.197 148.696v-.634c0-1.489-1.204-2.724-2.693-2.724h-71.624c-1.489 0-2.693 1.235-2.693 2.724v.634c0 1.521 1.204 2.756 2.693 2.756h71.624c1.491 0 2.693-1.235 2.693-2.756zm0-22.396v-.634c0-1.489-1.204-2.724-2.693-2.724h-71.624c-1.489 0-2.693 1.235-2.693 2.724v.634c0 1.521 1.204 2.756 2.693 2.756h71.624c1.491 0 2.693-1.236 2.693-2.756zm-27.338 42.132v-.697h-20.179v.697c0 2.629 2.154 4.783 4.752 4.783h10.675c2.63 0 4.752-2.154 4.752-4.783z" fill="#2d213f"/><path d="m176.414 245.916h-71.624c-1.489 0-2.693-1.235-2.693-2.756v-.634c0-1.489 1.204-2.724 2.693-2.724h71.624c1.489 0 2.693 1.235 2.693 2.724v.634c-.001 1.521-1.203 2.756-2.693 2.756z" fill="#c5cbcf"/><path d="m176.414 223.52h-71.624c-1.489 0-2.693-1.235-2.693-2.756v-.634c0-1.489 1.204-2.724 2.693-2.724h71.624c1.489 0 2.693 1.235 2.693 2.724v.634c-.001 1.52-1.203 2.756-2.693 2.756z" fill="#eaeeef"/><path d="m151.768 262.199v.697c0 2.629-2.122 4.783-4.752 4.783h-10.675c-2.598 0-4.752-2.154-4.752-4.783v-.697z" fill="#c5cbcf"/><g fill="#f2ce75"><path d="m103.586 162.286c2.503 1.457 4.055 4.15 4.055 7.064v28.478h27.813v-54.74c0-2.154.855-4.245 2.344-5.765l1.438-1.454c-28.497-.653-52.709-8.499-70.458-16.71 5.924 17.927 18.161 33.44 34.808 43.127z"/><path d="m163.156 134.701-11.61 11.746v51.382h22.967v-27.401c0-3.009 1.616-5.765 4.213-7.159 17.29-9.5 30.037-25.067 36.249-43.285-18.101 8.157-35.485 12.734-51.819 14.717z"/></g></svg>